<?xml version="1.0" encoding="iso-8859-1"?>
<!-- Generator: Adobe Illustrator 19.0.0, SVG Export Plug-In . SVG Version: 6.00 Build 0)  -->
<svg version="1.1" id="Layer_1" xmlns="http://www.w3.org/2000/svg" xmlns:xlink="http://www.w3.org/1999/xlink" x="0px" y="0px"
	 viewBox="0 0 512 512" style="enable-background:new 0 0 512 512;" xml:space="preserve">
<g>
	<path style="fill:#A0EBFF;" d="M256,0C114.616,0,0,114.616,0,256s114.616,256,256,256s256-114.616,256-256S397.384,0,256,0L256,0z"
		/>
	<path style="fill:#4AC7E6;" d="M512,256c0-8.223-0.425-16.348-1.183-24.376c-5.448-3.922-10.127-10.122-14.853-14.853
		c-11.238-11.254-22.477-22.513-33.715-33.766c-20.229-20.27-40.463-40.535-60.687-60.81c-1.372-1.377-2.724-2.964-4.413-3.963
		l0.179-0.036c-3.512-5.699-13.681-6.518-19.604-7.229c-9.779-1.167-19.702-1.188-29.532-0.891
		c-23.757,0.707-47.462,3.564-70.922,7.255c-0.404-0.364-10.87-11.034-12.078-11.796c-4.541-7.921-19.727-6.077-26.865-4.623v0.005
		c-13.834,2.801-24.028,10.066-22.789,16.276c0,0,10.772,8.991,10.783,9.759c-71.526,15.724-126.013,37.289-128.195,51l25.83,20.654
		c-0.62,0.87-1.075,1.72-1.347,2.545H77.696v6.252l0.835,0.041h-0.005c0.655,0.015,23.373,24.166,23.373,24.166l0.573,0.026
		c0.364,2.806,0.548,5.801,0.548,8.965v7.532H76.022c-8.648,0-12.058,11.643-4.762,16.312c0.691,1.08,30.904,31.263,31.759,31.903
		v70.784c0,9.779,4.285,18.54,11.054,24.571c0.845,0.947,1.741,1.843,2.688,2.688c0.845,0.947,114.693,114.796,115.64,115.64
		l0.922,0.922c99.4,8.735,196.823-42.45,245.847-129.423C500.69,343.337,512,299.822,512,256L512,256z"/>
	<path style="fill:#FB5D00;" d="M77.609,201.129v6.252c18.765,0,25.324,13.466,25.324,33.193v7.532H75.935
		c-4.895,0-8.858,3.968-8.858,8.858c0,4.895,3.968,8.858,8.858,8.858h26.998v101.279c0,18.191,14.746,32.937,32.937,32.937h227
		c18.191,0,32.937-14.746,32.937-32.937V240.573c0-22.426,6.154-33.193,25.324-33.193v-6.252L77.609,201.129L77.609,201.129z"/>
	<path style="fill:#414042;" d="M238.387,100.864c-13.906,2.775-24.172,10.081-22.927,16.312l13.819-2.76l2.949,14.756l22.723-4.536
		l-2.949-14.756l13.819-2.76C264.576,100.884,252.293,98.089,238.387,100.864z"/>
	<path style="fill:#231F20;" d="M238.387,100.864l-0.143,0.031l5.202,26.035l11.505-2.299l-2.949-14.756l13.819-2.76
		C264.576,100.884,252.293,98.089,238.387,100.864z"/>
	<path style="fill:#FB5D00;" d="M397.245,118.185c-7.834-12.718-75.018-10.598-154.516,5.279s-142.341,39.721-144.691,54.472
		L397.245,118.185z"/>
	<path style="fill:#E73B00;" d="M247.997,147.988l149.248-29.804c-7.823-12.698-74.819-10.604-154.158,5.207L247.997,147.988z"/>
	<path style="fill:#E73B00;" d="M419.354,248.11h-23.542v-7.532c0-22.426,6.154-33.193,25.324-33.193v-6.252H247.644v198.917
		h115.231c18.191,0,32.937-14.746,32.937-32.937V265.83h23.542c4.895,0,8.858-3.968,8.858-8.858
		C428.211,252.073,424.243,248.11,419.354,248.11L419.354,248.11z"/>
	<path style="fill:#466575;" d="M79.319,207.421h-0.881c12.037,0.271,18.888,6.252,22.129,15.949h0.026
		C97.439,213.893,90.839,207.949,79.319,207.421L79.319,207.421z M420.091,207.421h-0.896c-12.104,0.492-18.606,5.724-21.494,15.949
		h0.015C400.676,212.915,407.439,207.698,420.091,207.421L420.091,207.421z"/>
	<path style="fill:#EC2F00;" d="M247.644,207.421H79.319c11.515,0.527,18.12,6.472,21.274,15.949h147.046v-15.949H247.644z"/>
	<path style="fill:#D91E00;" d="M419.2,207.421H247.644v15.949h150.057C400.594,213.146,407.091,207.913,419.2,207.421
		L419.2,207.421z"/>
</g>
<g>
</g>
<g>
</g>
<g>
</g>
<g>
</g>
<g>
</g>
<g>
</g>
<g>
</g>
<g>
</g>
<g>
</g>
<g>
</g>
<g>
</g>
<g>
</g>
<g>
</g>
<g>
</g>
<g>
</g>
</svg>
