<?xml version="1.0" encoding="iso-8859-1"?>
<!-- Generator: Adobe Illustrator 19.0.0, SVG Export Plug-In . SVG Version: 6.00 Build 0)  -->
<svg version="1.1" id="Layer_1" xmlns="http://www.w3.org/2000/svg" xmlns:xlink="http://www.w3.org/1999/xlink" x="0px" y="0px"
	 viewBox="0 0 496.2 496.2" style="enable-background:new 0 0 496.2 496.2;" xml:space="preserve">
<path style="fill:#FABC3D;" d="M496.2,248.1C496.2,111.1,385.1,0,248.1,0S0,111.1,0,248.1s111.1,248.1,248.1,248.1
	S496.2,385.1,496.2,248.1z"/>
<path style="fill:#3A3536;" d="M285.5,226.1l40.5-54.3c0,0,54.3-30,44.6-53l-60.2,46.1l-42.3,47.4L285.5,226.1z"/>
<path style="fill:#514D4E;" d="M245,202.7c0,0,43.2-39.6,55.2-49.7c12-10.1,40.4-30.8,48.8-35.9c12.9-7.8,27.1,0.5,19.8,6.9
	c-7.4,6.4-32.2,21.6-46.5,36.3s-46,56.1-46,56.1L245,202.7z"/>
<path style="fill:#C9C7C7;" d="M245,202.7c0,0,3-2.8,7.7-7l29.2,13.6c-3.4,4.4-5.6,7.2-5.6,7.2L245,202.7z"/>
<path style="fill:#ADACAC;" d="M288.3,225.7l-6.4-16.4c-3.4,4.4-5.6,7.2-5.6,7.2S283.6,229.9,288.3,225.7z"/>
<g>
	<ellipse style="fill:#3A3536;" cx="213" cy="304.3" rx="87.1" ry="56.2"/>
	<path style="fill:#3A3536;" d="M213,360.4c47.1,0,85.4-24,87.1-54.1c0-0.8,0-1.4,0-1.5c-2-29.9-40.2-28-87.1-28
		c-46.5,0-84.5-2.1-87,27.5c0,0.2,0,1.1,0,2.5C128,336.6,166.2,360.4,213,360.4z"/>
</g>
<ellipse style="fill:#666465;" cx="213" cy="324.2" rx="80.3" ry="49.9"/>
<ellipse style="fill:#3A3536;" cx="213" cy="255.6" rx="87.1" ry="56.2"/>
<ellipse style="fill:#666465;" cx="213" cy="318.9" rx="80.3" ry="49.9"/>
<ellipse transform="matrix(0.8778 -0.479 0.479 0.8778 -15.4781 185.6901)" style="fill:#3A3536;" cx="356.234" cy="123.184" rx="7.8" ry="4.9"/>
<path style="fill:#B2162D;" d="M300.1,257.7c-1.7,30.1-40,54.1-87.1,54.1c-46.8,0-85.1-23.8-87.1-53.7c-0.1,6.8-0.1,62.8-0.1,63.7
	c0,31,39,60.5,87.1,60.5s87.1-29.5,87.1-60.5C300.2,321,300.1,263.4,300.1,257.7z"/>
<path style="fill:#E2E0E0;" d="M213,201.4c-47.3,0-85.7,24.6-85.7,54.7c0,30.2,38.5,54.7,85.7,54.7s85.7-24.6,85.7-54.7
	C298.8,226,260.3,201.4,213,201.4z M213,313.7c-48.8,0-88.5-25.8-88.5-57.6c0-31.7,39.7-57.6,88.5-57.6s88.5,25.8,88.5,57.6
	C301.6,287.9,261.8,313.7,213,313.7z"/>
<g>
</g>
<g>
</g>
<g>
</g>
<g>
</g>
<g>
</g>
<g>
</g>
<g>
</g>
<g>
</g>
<g>
</g>
<g>
</g>
<g>
</g>
<g>
</g>
<g>
</g>
<g>
</g>
<g>
</g>
</svg>
